<?xml version="1.0" encoding="utf-8"?>
<!-- Generator: Adobe Illustrator 24.0.1, SVG Export Plug-In . SVG Version: 6.00 Build 0)  -->
<svg version="1.1" id="Capa_1" xmlns="http://www.w3.org/2000/svg" xmlns:xlink="http://www.w3.org/1999/xlink" x="0px" y="0px"
	 viewBox="0 0 512 512" style="enable-background:new 0 0 512 512;" xml:space="preserve">
<style type="text/css">
	.st0{fill:#FFFFFF;}
</style>
<g transform="translate(0.000000,512.000000) scale(0.100000,-0.100000)">
	<path class="st0" d="M1182,5100c-48-29-72-75-72-137v-53h-62c-128,0-262-50-366-135c-97-80-156-165-200-288c-23-63-26-88-26-197
		c1-167,25-278,96-445c106-246,322-499,599-702c97-72,283-178,380-217c90-36,96-40,128-93c111-182,270-351,429-456
		c31-20,57-41,57-45c-1-4-5-32-9-62c-9-62,11-161,45-218c15-27,19-52,19-131v-98l-84-32c-102-38-193-103-232-164l-29-46l-133-1
		c-128,0-134-1-157-25l-25-24V997V463l-49-7c-37-5-55-13-70-33c-19-23-21-39-21-189c0-174,6-205,47-223c34-16,2192-16,2226,0
		c41,18,47,49,47,223c0,150-2,166-21,189c-15,20-33,28-70,33l-49,7v534v534l-25,24c-23,24-29,25-157,25l-133,1l-29,46
		c-39,61-130,126-232,164l-84,32v98c0,79,4,104,19,131c44,74,58,183,35,264c-4,17,7,28,63,64c130,84,327,295,425,455
		c31,50,38,55,127,91c98,40,285,147,380,217c379,281,610,606,682,962c7,33,13,114,13,180c1,98-3,133-21,190c-80,251-320,434-570,435
		h-63v53c0,62-24,108-72,137c-33,20-54,20-1378,20S1215,5120,1182,5100z M3850,4943c0-68-23-382-36-493c-101-895-422-1620-853-1929
		l-44-31h-357h-357l-44,31c-254,182-474,512-633,952c-137,377-216,791-246,1277c-5,91-10,175-10,188v22h1290
		C3782,4960,3850,4959,3850,4943z M1120,4727c0-42,29-332,46-448c51-373,169-800,297-1081c20-43,34-78,31-78c-2,0-47,26-99,57
		c-333,199-608,497-715,775c-61,157-84,340-56,447c24,92,71,175,134,232c91,84,174,117,290,118C1117,4750,1120,4749,1120,4727z
		 M4175,4736c162-43,289-182,326-353c14-66,1-225-26-327c-83-315-372-653-750-879c-52-31-97-57-99-57c-3,0,10,33,28,73
		c173,380,290,871,337,1420l12,137h61C4098,4750,4148,4744,4175,4736z M2820,2276c8-40,8-66,0-95l-11-41h-249h-249l-11,41
		c-8,29-8,55,0,95l11,54h249h249L2820,2276z M2760,1922v-57h-200h-200v57v58h200h200V1922z M2830,1677c85-20,174-53,202-77
		c23-19,17-19-470-20c-331,0-491,3-487,10c17,28,147,75,263,96C2438,1703,2739,1698,2830,1677z M3420,940V460h-860h-860v480v480h860
		h860V940z M3560,228v-68H2560H1560v68v67h1000h1000V228z"/>
	<path class="st0" d="M3511,4633c-44-490-147-900-311-1238c-93-191-174-311-287-423c-51-51-93-95-93-98c0-2,20-31,44-65l44-60l58,49
		c281,236,517,728,633,1317c38,194,81,525,81,626v29h-79h-78L3511,4633z"/>
	<path class="st0" d="M1885,1235l-25-24V942c0-257,1-270,21-296l20-26h659h659l20,26c20,26,21,39,21,296v269l-25,24l-24,25h-651
		h-651L1885,1235z M3100,940V780h-540h-540v160v160h540h540V940z"/>
</g>
</svg>
