<?xml version="1.0" encoding="utf-8"?>
<!-- Generator: Adobe Illustrator 24.0.1, SVG Export Plug-In . SVG Version: 6.00 Build 0)  -->
<svg version="1.1" id="Capa_1" xmlns="http://www.w3.org/2000/svg" xmlns:xlink="http://www.w3.org/1999/xlink" x="0px" y="0px"
	 viewBox="0 0 512 512" style="enable-background:new 0 0 512 512;" xml:space="preserve">
<style type="text/css">
	.st0{fill:#FFFFFF;}
</style>
<g transform="translate(0.000000,512.000000) scale(0.100000,-0.100000)">
	<path class="st0" d="M2384,5105c-223-40-407-137-555-292c-87-92-137-164-189-276c-75-159-100-308-100-599c0-130-1-139-25-174
		c-129-190-12-454,223-505l49-10l12-63c28-142,121-300,231-398l60-52v-112v-112l-167-66c-93-36-317-123-500-194s-358-144-389-163
		c-79-47-202-171-247-249c-21-36-50-101-65-145l-27-80l-3-699c-3-790-6-763,73-841c79-80,2-75,1229-75c879,1,1094,3,1108,14
		c25,19,37,57,26,85c-16,44-36,50-155,51h-113v28c0,33,29,328,36,360c4,18,11,22,42,22c86,0,162,43,188,107c11,24,14,96,14,294
		c0,259,0,263-24,303c-23,40-87,86-119,86c-13,0-11,11,11,63c23,55,26,75,26,177c1,83-4,127-16,159l-16,43l150,207
		c83,113,156,212,163,219c9,10,70-10,310-103c164-63,324-129,357-147c80-42,177-142,222-228c55-104,66-172,66-416
		c0-198,1-213,21-238c29-37,80-36,109,1c21,27,22,34,18,278c-4,239-5,254-31,330c-14,44-43,109-64,145c-46,78-169,202-248,249
		c-31,19-280,121-554,227l-496,193l-3,116l-3,117l81,85c65,68,90,105,130,186c29,59,55,130,62,169l12,67l51,11
		c236,51,352,319,221,513c-22,32-24,45-29,258c-6,238-17,312-63,436c-66,177-194,345-353,462C2928,5080,2631,5150,2384,5105z
		 M2701,4954c267-50,497-228,614-475c57-122,76-212,82-398l6-164l-33,6c-18,4-39,7-46,7c-9,0-14,11-14,28c0,38-34,83-176,230
		l-119,122h-50c-35,0-64-8-95-25c-306-173-544-243-843-248c-161-3-199-15-227-74c-11-24-25-34-57-42c-23-6-45-11-49-11
		c-12,0,5,310,21,384C1811,4745,2250,5040,2701,4954z M3058,4051l102-109v-335c0-374-7-427-72-550c-48-92-164-203-259-250
		c-314-154-694-26-839,284c-53,113-60,172-60,503v299l57-6c132-14,397,27,577,90c103,35,268,111,341,156c22,14,43,26,46,26
		C2954,4160,3002,4111,3058,4051z M3401,3745c65-42,97-147,68-222c-19-51-71-96-130-113l-29-9v191v190l28-7
		C3353,3772,3381,3758,3401,3745z M1780,3586v-185l-29,9c-43,12-67,27-94,60c-75,89-55,208,47,274C1780,3794,1780,3794,1780,3586z
		 M2345,2619c144-40,306-36,453,12c35,12,65,19,66,18c2-2,6-50,8-106l5-103l-163-140c-89-77-165-140-168-140s-76,62-163,137
		c-123,106-157,141-154,157c1,12,5,61,8,109c4,78,7,88,21,82C2267,2642,2307,2630,2345,2619z M2251,2213l159-137l-68-32
		c-37-17-89-50-117-72c-27-23-52-38-55-34c-32,37-251,344-249,346c4,3,160,64,167,65C2090,2350,2163,2288,2251,2213z M3099,2319
		c71-28,79-34,68-48c-7-10-66-90-131-179l-119-163l-26,25c-35,32-129,91-165,103c-17,5-31,13-32,19c-3,10,302,274,316,274
		C3015,2350,3055,2336,3099,2319z M1931,2009c85-116,153-216,152-222c0-7-9-41-18-77c-28-106-16-210,39-341c5-12-3-18-32-27
		c-49-15-109-78-117-124c-3-18-5-148-3-289l3-256l28-36c36-48,77-68,148-74c56-6,59-7,64-37c7-43,35-323,35-352v-24h-370h-370
		l-1,583c0,630-1,644-51,661c-43,15-81-3-95-44c-9-26-12-194-12-617l-1-583h-205c-221,0-247,5-271,51c-21,41-20,1302,1,1402
		c29,140,144,295,267,362c59,33,614,253,639,254C1771,2220,1836,2140,1931,2009z M2690,1908c163-75,243-273,178-436
		c-14-33-36-74-49-91l-24-30l-249,2l-250,2l-32,42c-137,179-42,457,181,530C2508,1947,2625,1939,2690,1908z M2985,955V715l-420-3
		c-231-1-430,0-442,3l-23,5v234c0,128,3,236,7,239c3,4,203,6,442,5l436-3V955z M2726,355l-20-205h-161h-162l-17,188
		c-10,103-20,195-23,205c-4,16,10,17,199,17h203L2726,355z"/>
	<path class="st0" d="M2347,1019c-46-27-41-105,9-128c33-15,345-15,378,0c51,23,55,103,7,128C2715,1033,2371,1033,2347,1019z"/>
	<path class="st0" d="M3650,1380c-20-20-20-33-20-625V150h-119c-105,0-121-2-145-21c-36-28-36-80,0-108c26-20,37-21,434-21
		c462,0,472,1,545,75c71,70,75,95,75,435c0,281-1,297-20,317c-26,29-55,36-82,22c-47-25-47-29-48-331c0-201-4-295-12-313
		c-22-50-49-55-273-55h-205v584c0,601-2,636-40,656C3710,1406,3672,1402,3650,1380z"/>
</g>
</svg>
