<svg version="1.1" id="Capa_1" xmlns="http://www.w3.org/2000/svg" xmlns:xlink="http://www.w3.org/1999/xlink" x="0px" y="0px" viewBox="0 0 262 352" xml:space="preserve" class="logo-img">
	<title>Neutrale</title>
	<g transform="translate(0.000000,352.000000) scale(0.100000,-0.100000)">
		<path d="M900,2879.5c50-76,141-217,203-313s160-246,217-334c58-88,105-163,105-167c0-5-85-8-189-8h-189l-227,353
			c-125,193-234,359-241,367c-12,12-14-41-14-353v-367h-40h-40v350c0,214-4,369-11,400c-20,94-67,127-203,139c-64,5-71,8-74,29
			c-7,48-12,47,309,45l304-2L900,2879.5z M2425,2985.5c0-38,0-38-42-38c-61,0-138-26-171-58c-61-56-62-63-67-462l-5-365l-42-3l-42-3
			l-3,368c-3,358-4,369-25,410c-37,69-102,102-223,112c-58,5-65,8-68,29c-7,48-14,47,347,47h341V2985.5z M565,1250.5
			c1-345,16-445,77-500c29-27,100-49,178-56c70-7,70-7,73-39l3-33l-334,1c-184,0-340-1-348-3c-10-2-14,7-14,32v35l60,6
			c114,13,162,41,199,119c20,42,21,64,24,348l3,302h40h39V1250.5z M1972,1333.5l82-127l1,128v128l43-3l42-3l3-427l2-428h-44h-44
			l-269,418c-149,229-273,423-277,430c-6,9,34,12,186,12h193L1972,1333.5z"/>
	</g>
	<text transform="matrix(1 0 0 1 0 189.2077)" class="st0 st1 st2">NEUTRALE</text>
</svg>