<?xml version="1.0" encoding="utf-8"?>
<!-- Generator: Adobe Illustrator 24.0.1, SVG Export Plug-In . SVG Version: 6.00 Build 0)  -->
<svg version="1.1" id="Capa_1" xmlns="http://www.w3.org/2000/svg" xmlns:xlink="http://www.w3.org/1999/xlink" x="0px" y="0px"
	 viewBox="0 0 512 512" style="enable-background:new 0 0 512 512;" xml:space="preserve">
<style type="text/css">
	.st0{fill:#FFFFFF;}
</style>
<g transform="translate(0.000000,512.000000) scale(0.100000,-0.100000)">
	<path class="st0" d="M0,2853C0,860-4,994,71,841c77-155,224-278,399-333l75-23h2015h2015l75,23c175,55,322,178,399,333
		c75,152,71,57,71,1672v1447h-495h-495v340v340H2065H0V2853z M3830,2697c0-1593,1-1646,19-1719c11-42,31-99,45-127s26-55,26-61
		c0-13-3240-14-3324,0c-117,19-215,92-264,198l-27,57l-3,1648l-2,1647h1765h1765V2697z M4818,2353l-3-1308l-27-57
		c-123-263-493-269-620-10l-33,67l-3,1307l-2,1308h345h345L4818,2353z"/>
	<path class="st0" d="M600,3210v-740h655h655v740v740h-655H600V3210z M1610,3210v-440h-355H900v440v440h355h355V3210z"/>
	<path class="st0" d="M2212,3803l3-148l658-3l657-2v150v150h-660h-661L2212,3803z"/>
	<path class="st0" d="M2210,3210v-150h660h660v150v150h-660h-660V3210z"/>
	<path class="st0" d="M2210,2620v-150h660h660v150v150h-660h-660V2620z"/>
	<path class="st0" d="M600,1970v-150h1465h1465v150v150H2065H600V1970z"/>
	<path class="st0" d="M600,1320v-150h1465h1465v150v150H2065H600V1320z"/>
</g>
</svg>
